<svg width="315" height="315" viewBox="0 0 315 315" fill="none" xmlns="http://www.w3.org/2000/svg">
<circle cx="157" cy="157" r="148" fill="white"/>
<path d="M214.618 87.3262H100.034C89.5572 87.3262 81.0342 95.8492 81.0342 106.326V222.326C81.0342 232.803 89.5572 241.326 100.034 241.326H214.618C225.095 241.326 233.618 232.803 233.618 222.326V106.326C233.618 95.8502 225.095 87.3262 214.618 87.3262ZM215.618 222.326C215.618 222.878 215.17 223.326 214.618 223.326H100.034C99.4822 223.326 99.0342 222.878 99.0342 222.326V106.326C99.0342 105.774 99.4822 105.326 100.034 105.326H214.618C215.17 105.326 215.618 105.774 215.618 106.326V222.326Z" fill="#273036"/>
<path d="M204.198 118.812H183.583V137.723H204.198V118.812Z" fill="#273036"/>
<path d="M157.326 192.27C168.551 192.27 177.65 183.171 177.65 171.946C177.65 160.721 168.551 151.622 157.326 151.622C146.101 151.622 137.002 160.721 137.002 171.946C137.002 183.171 146.101 192.27 157.326 192.27Z" fill="#273036"/>
<path d="M189.745 171.856C189.745 189.76 175.231 204.274 157.327 204.274C139.423 204.274 124.909 189.76 124.909 171.856L124.953 157.411H110.456V211.172H204.199V157.411H189.82L189.745 171.856Z" fill="#273036"/>
<path d="M157.326 0C70.576 0 0 70.576 0 157.326C0 244.076 70.576 314.652 157.326 314.652C244.076 314.652 314.652 244.076 314.652 157.326C314.652 70.576 244.076 0 157.326 0ZM157.326 296.652C80.502 296.652 18 234.15 18 157.326C18 80.502 80.502 18 157.326 18C234.15 18 296.652 80.502 296.652 157.326C296.652 234.15 234.15 296.652 157.326 296.652Z" fill="#273036"/>
</svg>
