<svg width="315" height="315" viewBox="0 0 315 315" fill="none" xmlns="http://www.w3.org/2000/svg">
<circle cx="158" cy="157" r="148" fill="white"/>
<path d="M235.988 105.04C233.338 106.615 225.388 109.754 217.974 110.542C222.728 107.782 229.766 98.7409 231.504 91.5587C226.934 94.6984 216.438 99.2786 211.255 99.2786C211.255 99.2786 211.255 99.2928 211.264 99.3026C205.347 92.6433 197.03 88.4951 187.793 88.4951C169.876 88.4951 155.338 104.142 155.338 123.448C155.338 126.127 155.634 128.73 156.172 131.235H156.162C131.849 130.563 103.427 117.441 87.4096 94.9768C77.5768 113.322 86.0847 133.722 97.2517 141.155C93.4396 141.472 86.3919 140.684 83.0795 137.217C82.849 149.384 88.2933 165.516 108.113 171.363C104.29 173.582 97.5491 172.948 94.6029 172.457C95.6397 182.751 109.006 196.193 123.611 196.193C118.406 202.667 100.643 214.449 78.6621 210.694C93.5951 220.49 111.003 226.154 129.43 226.154C181.792 226.154 222.458 180.457 220.269 124.082C220.269 124.014 220.25 123.947 220.25 123.89C220.25 123.736 220.269 123.582 220.269 123.448C220.269 123.275 220.25 123.102 220.25 122.92C225.012 119.424 231.407 113.221 235.988 105.04Z" fill="#273036"/>
<path d="M157.326 0C70.576 0 0 70.576 0 157.326C0 244.076 70.576 314.652 157.326 314.652C244.076 314.652 314.652 244.076 314.652 157.326C314.652 70.576 244.076 0 157.326 0ZM157.326 296.652C80.502 296.652 18 234.15 18 157.326C18 80.502 80.502 18 157.326 18C234.15 18 296.652 80.502 296.652 157.326C296.652 234.15 234.15 296.652 157.326 296.652Z" fill="#273036"/>
</svg>
