<svg width="315" height="315" viewBox="0 0 315 315" fill="none" xmlns="http://www.w3.org/2000/svg">
<circle cx="157" cy="158" r="148" fill="white"/>
<path d="M157.326 0C70.576 0 0 70.576 0 157.326C0 244.076 70.576 314.652 157.326 314.652C244.076 314.652 314.652 244.076 314.652 157.326C314.652 70.576 244.076 0 157.326 0ZM157.326 296.652C80.502 296.652 18 234.15 18 157.326C18 80.502 80.502 18 157.326 18C234.15 18 296.652 80.502 296.652 157.326C296.652 234.15 234.15 296.652 157.326 296.652Z" fill="#273036"/>
<path d="M132.379 79L126.138 103.275H125.514L118.965 79H108.787L121.702 119.253V136.191H129.115V118.139L142.644 79H132.379ZM164.672 105.455C164.672 102.027 163.559 98.6656 161.599 96.6972C159.333 94.4308 158.2 93.1156 154.484 93.1156C150.403 93.1156 149.27 94.6618 146.85 96.6972C144.43 98.7713 143.364 101.719 143.364 105.176V123.958C143.364 127.78 144.555 130.805 146.898 133.08C149.251 135.308 150.384 136.422 154.292 136.422C158.353 136.422 158.872 135.328 161.224 133.177C163.529 131.007 164.671 127.991 164.671 124.15L164.672 105.455ZM193.278 93.1537H186.105V121.807C185.26 122.796 181.514 127.866 180.843 127.866C180.017 127.866 179.854 127.636 179.47 127.156C179.096 126.685 178.903 125.926 178.903 124.861V93.1537H171.72V127.943C171.72 130.641 171.951 134.568 173.391 136.028C174.371 137.017 177.463 137.199 180.276 135.048C182.437 133.406 184.213 131.111 186.105 127.683V135.308H193.278V93.1537ZM236.325 179.729C236.325 163.501 223.477 150.346 207.595 150.346H107.74C91.8675 150.346 79 163.501 79 179.729V206.951C79 223.15 91.8675 236.325 107.74 236.325H207.595C223.477 236.325 236.325 223.15 236.325 206.951V179.729ZM196.734 221.931C193.45 221.931 190.896 220.903 189.014 218.81C187.142 216.794 186.191 213.942 186.191 210.322V193.422C186.191 190.186 187.238 184.204 189.293 182.188C191.377 180.103 193.998 179.105 197.253 179.105C200.604 179.105 203.168 180.037 204.925 181.918C206.75 183.858 207.633 189.878 207.633 193.422V200.556H193.69V210.072C193.69 212.069 193.949 213.423 194.429 214.201C194.919 214.96 195.706 215.353 196.906 215.353C198.097 215.353 198.922 215.027 199.403 214.374C199.874 213.721 200.142 212.329 200.142 210.072V208.372H207.632V210.322C207.632 214.181 206.749 217.071 204.905 219.02C203.062 220.942 200.336 221.931 196.734 221.931ZM200.143 194.708V193.383C200.143 191.789 199.874 187.353 199.375 186.69C198.904 186.009 198.059 185.663 196.946 185.663C195.803 185.663 194.958 186.008 194.459 186.69C193.96 187.353 193.691 191.789 193.691 193.383V194.708H200.143ZM172.287 222.027C170.799 222.027 169.483 221.72 168.34 221.134C167.217 220.577 166.141 219.713 165.143 218.484V221.49H157.586V164.73H164.701V181.889C165.728 180.698 167.265 179.776 168.34 179.153C169.502 178.528 170.645 178.212 171.826 178.212C174.179 178.212 176.022 179.086 177.251 180.757C178.49 182.428 179.114 184.877 179.114 188.084V213.396C179.114 216.18 178.528 218.293 177.376 219.782C176.186 221.249 174.486 222.027 172.287 222.027ZM172.066 188.506C172.066 187.19 171.135 186.191 170.636 185.491C170.059 184.81 169.282 184.502 168.293 184.502C167.737 184.502 167.228 184.618 166.69 184.877C166.191 185.117 165.231 185.529 164.703 186.058V214.03C165.298 214.644 166.345 215.135 166.95 215.412C167.516 215.71 168.102 215.855 168.745 215.855C169.657 215.855 170.339 215.566 170.771 214.999C171.184 214.472 172.068 213.569 172.068 212.311V188.506H172.066V188.506ZM142.98 216.794C141.598 218.33 140.167 220.011 138.659 220.827C137.181 221.691 135.73 222.066 134.31 222.066C132.581 222.066 131.275 221.499 130.402 220.328C129.518 219.156 128.865 217.437 128.865 215.114V179.201H136.115V212.463C136.115 213.375 136.279 214.028 136.586 214.451C136.912 214.845 137.421 215.065 138.122 215.065C138.66 215.065 139.812 214.796 140.657 214.23C141.502 213.702 142.722 212.991 143.423 212.185V179.201H150.48V221.95H142.981L142.98 216.794ZM121.894 221.912H114.692V171.874H107.663V164.73H129.153V171.874H121.894V221.912ZM154.052 128.663C152.861 128.663 151.939 128.327 151.325 127.655C150.672 126.992 150.355 126.041 150.355 124.802V104.858C150.355 103.87 150.71 103.082 151.382 102.487C152.064 101.872 152.948 101.565 154.052 101.565C155.233 101.565 155.742 101.872 156.481 102.487C157.202 103.082 157.586 103.87 157.586 104.858V124.802C157.586 126.022 157.211 126.953 156.51 127.655C155.761 128.328 155.271 128.663 154.052 128.663Z" fill="#273036"/>
</svg>
