<svg width="315" height="315" viewBox="0 0 315 315" fill="none" xmlns="http://www.w3.org/2000/svg">
<circle cx="157" cy="157" r="148" fill="white"/>
<path d="M194.668 132.579H167.301V112.607C167.301 106.48 173.639 105.059 176.596 105.059C179.535 105.059 194.275 105.059 194.275 105.059V78.1057L174.013 78C146.369 78 140.06 98.0977 140.06 110.984V132.58H120V160.35H140.06C140.06 196.004 140.06 235.325 140.06 235.325H167.301C167.301 235.325 167.301 195.6 167.301 160.35H190.443L194.668 132.579Z" fill="#273036"/>
<path d="M157.326 0C70.576 0 0 70.576 0 157.326C0 244.076 70.576 314.652 157.326 314.652C244.076 314.652 314.652 244.076 314.652 157.326C314.652 70.576 244.076 0 157.326 0ZM157.326 296.652C80.502 296.652 18 234.15 18 157.326C18 80.502 80.502 18 157.326 18C234.15 18 296.652 80.502 296.652 157.326C296.652 234.15 234.15 296.652 157.326 296.652Z" fill="#273036"/>
</svg>
